<svg xmlns="http://www.w3.org/2000/svg" xmlns:xlink="http://www.w3.org/1999/xlink" width="500" zoomAndPan="magnify" viewBox="0 0 375 374.999991" height="500" preserveAspectRatio="xMidYMid meet" version="1.0"><path fill="#e4be99" d="M 282.675781 249.441406 C 279.898438 254.539062 276.703125 259.433594 273.140625 264.035156 C 262.128906 278.269531 247.585938 289.839844 230.953125 296.71875 C 223.207031 299.960938 214.910156 301.402344 206.617188 302.425781 C 197.414062 303.625 188.136719 304.128906 178.859375 304.128906 C 174.128906 304.128906 169.398438 303.992188 164.6875 303.757812 C 153.550781 302.972656 142.148438 301.941406 131.746094 297.65625 C 118.9375 291.949219 107.863281 283.039062 99.125 272.199219 C 90.179688 261.125 83.671875 248.027344 80.230469 234.246094 C 75.5625 217.976562 74.34375 201.039062 71.410156 184.429688 C 69.085938 170.945312 67.699219 157.332031 66.699219 143.683594 C 65.808594 130.175781 64.859375 115.660156 71.738281 103.4375 C 78.296875 92.183594 87.8125 82.234375 99.382812 76.113281 C 103.679688 73.699219 108.257812 71.851562 112.894531 70.1875 C 116.746094 68.269531 120.722656 66.597656 124.761719 65.109375 C 130.824219 62.859375 137.066406 61.042969 143.386719 59.671875 C 148.210938 58.628906 153.097656 57.84375 158.003906 57.328125 C 169.457031 56.277344 180.988281 56.636719 192.464844 56.957031 C 201.886719 57.222656 211.335938 57.792969 220.632812 59.308594 C 225.0625 60.03125 229.453125 60.980469 233.792969 62.207031 C 252.460938 67.492188 272.582031 74.089844 285.410156 89.410156 C 300.234375 106.75 302.640625 130.6875 303.890625 152.601562 C 306.289062 186.019531 298.820312 220.070312 282.675781 249.441406 Z M 282.675781 249.441406 " fill-opacity="1" fill-rule="nonzero"/><path fill="#cf9a69" d="M 154.585938 199.117188 C 147.222656 217.214844 130.753906 229.1875 117.925781 243.246094 C 114.269531 247.386719 111.480469 251.792969 108.609375 256.417969 C 105.882812 260.742188 103.082031 265.046875 100.601562 269.546875 C 100.160156 270.414062 99.664062 271.3125 99.125 272.199219 C 90.179688 261.125 83.671875 248.027344 80.234375 234.246094 C 75.5625 217.976562 74.34375 201.039062 71.410156 184.429688 C 69.085938 170.945312 67.703125 157.332031 66.699219 143.683594 C 65.8125 130.175781 64.859375 115.660156 71.742188 103.4375 C 78.300781 92.183594 87.816406 82.234375 99.386719 76.113281 C 103.683594 73.699219 108.257812 71.851562 112.894531 70.1875 C 116.75 68.269531 120.726562 66.597656 124.765625 65.109375 C 130.828125 62.859375 137.066406 61.042969 143.390625 59.671875 C 142.089844 67.484375 141.046875 75.339844 140.375 83.21875 C 138.90625 101.859375 145.941406 117.3125 153.511719 133.671875 C 163.160156 155.472656 162.882812 176.933594 154.585938 199.117188 Z M 303.894531 152.605469 C 302.644531 130.6875 300.238281 106.75 285.414062 89.410156 C 272.582031 74.089844 252.460938 67.496094 233.796875 62.210938 C 229.457031 60.980469 225.066406 60.03125 220.636719 59.3125 C 221.761719 65.886719 222.039062 72.585938 222.277344 79.253906 C 222.597656 91.949219 223.777344 104.71875 222.144531 117.375 C 220.261719 131.289062 214.832031 144.503906 213.402344 158.519531 C 211.242188 172.351562 214.199219 186.503906 220.808594 198.777344 C 226.003906 208.121094 232.121094 217.078125 239.371094 224.957031 C 249.714844 235.339844 260.941406 245.074219 269.257812 257.265625 C 270.714844 259.433594 271.984375 261.703125 273.140625 264.035156 C 276.703125 259.429688 279.898438 254.539062 282.675781 249.441406 C 298.820312 220.070312 306.289062 186.019531 303.894531 152.605469 Z M 303.894531 152.605469 " fill-opacity="1" fill-rule="nonzero"/><path fill="#2e2027" d="M 120.691406 166.65625 C 121.894531 161.769531 124.667969 157.859375 128.519531 158.285156 C 139.402344 159.476562 137.660156 186.195312 126.402344 183.738281 C 120.429688 182.433594 118.988281 173.566406 120.691406 166.65625 Z M 241.792969 183.738281 C 253.050781 186.191406 254.789062 159.476562 243.910156 158.28125 C 240.054688 157.859375 237.28125 161.769531 236.078125 166.652344 C 234.375 173.566406 235.816406 182.433594 241.792969 183.738281 Z M 216.347656 221.453125 C 211.582031 225.347656 204.59375 225.96875 198.746094 224.574219 C 195.929688 223.738281 193.042969 222.558594 190.289062 221.074219 C 189.34375 220.492188 188.417969 219.847656 187.445312 219.3125 C 187.445312 219.210938 187.46875 219.121094 187.453125 219.011719 C 187.371094 214.644531 187.292969 210.199219 187.460938 205.746094 C 187.375 205.054688 187.488281 203.914062 187.503906 202.789062 C 188.261719 202.53125 188.988281 202.148438 189.605469 201.710938 C 192.242188 199.964844 194.660156 197.910156 197.109375 195.90625 C 202.550781 191.726562 207.878906 185.625 199.03125 181.53125 C 192.453125 178.949219 185.011719 179.289062 178.148438 180.433594 C 167.980469 181.816406 167.582031 188.816406 174.085938 195.382812 C 177.253906 198.171875 180.730469 200.597656 184.34375 202.761719 C 184.394531 203.320312 184.441406 203.855469 184.386719 204.28125 C 184.257812 209.027344 184.195312 213.96875 184.386719 218.816406 C 184.355469 218.835938 184.320312 218.847656 184.289062 218.867188 C 182.851562 219.769531 181.464844 220.769531 180.007812 221.644531 C 176.027344 224.125 171.175781 224.914062 166.527344 224.996094 C 162.28125 225.074219 158.394531 223.410156 154.972656 220.972656 C 154.667969 220.757812 154.441406 220.5 154.238281 220.1875 C 153.699219 219.566406 152.671875 219.464844 152.054688 220.039062 C 149.25 222.90625 158.984375 226.875 161.132812 227.449219 C 169.613281 229.363281 178.625 226.996094 185.488281 221.785156 C 190.457031 224.835938 195.839844 227.640625 201.734375 228.261719 C 207.515625 228.5625 213.617188 227.796875 218.207031 223.925781 C 220.578125 222.582031 218.28125 219.566406 216.347656 221.453125 Z M 216.347656 221.453125 " fill-opacity="1" fill-rule="nonzero"/><path fill="#b87648" d="M 95.933594 256.273438 C 97.113281 270.09375 95.539062 284.148438 91.0625 297.292969 C 88.9375 303.351562 85.664062 309.492188 80.054688 312.957031 C 75.085938 315.984375 69.265625 317.78125 63.433594 316.792969 C 49.363281 314.773438 36.902344 306.910156 27.113281 296.863281 C 12.378906 282.238281 3.328125 262.203125 1.714844 241.539062 C 0.046875 204.308594 15.75 168.675781 36.613281 138.605469 C 43.015625 129.59375 49.222656 120.367188 56.609375 112.109375 C 65.539062 102.597656 74.941406 93.390625 85.234375 85.355469 C 86.699219 83.449219 90.269531 84.417969 90.214844 86.953125 C 90.214844 87.878906 89.722656 88.675781 88.992188 89.128906 C 86.332031 93.757812 84.066406 98.582031 82.152344 103.5625 C 76.710938 116.390625 73.035156 129.855469 74.222656 143.808594 C 75.628906 164.433594 79.863281 184.789062 84.695312 204.859375 C 88.855469 221.882812 94.789062 238.675781 95.933594 256.273438 Z M 339.378906 139.222656 C 331.0625 128.269531 322.675781 117.339844 312.503906 108.019531 C 305.566406 100.566406 298.378906 93.253906 289.914062 87.511719 C 287.835938 86.464844 285.183594 83.234375 282.722656 84.347656 C 279.164062 84.289062 279.636719 88.046875 280.882812 90.191406 C 281.886719 92.460938 282.921875 94.734375 283.820312 97.050781 C 286.695312 104.558594 289.15625 111.878906 291.628906 119.667969 C 297.597656 137.882812 299.261719 157.394531 296.671875 176.417969 C 294.242188 192.601562 289.25 208.28125 286.289062 224.371094 C 283.378906 240.824219 281.523438 257.507812 280.628906 274.195312 C 280.253906 294.566406 281.328125 317.15625 306.957031 318.53125 C 315.910156 318.707031 324.160156 314.230469 331.546875 309.605469 C 338.921875 305.210938 344.917969 298.910156 350.058594 292.109375 C 373.039062 260.960938 375.128906 218.082031 363.441406 182.109375 C 358.671875 166.191406 349.6875 152.109375 339.378906 139.222656 Z M 339.378906 139.222656 " fill-opacity="1" fill-rule="nonzero"/><path fill="#e1c5af" d="M 52.976562 179.011719 C 52.9375 176.738281 52.875 174.460938 52.820312 172.1875 C 52.710938 169.566406 52.792969 166.914062 52.394531 164.316406 C 52.378906 163.46875 53.113281 162.769531 53.941406 162.769531 C 55.714844 162.878906 55.578125 164.582031 55.691406 165.820312 C 55.90625 170.214844 55.976562 174.613281 56.074219 179.011719 C 56.0625 181.027344 53.003906 181.035156 52.976562 179.011719 Z M 46.445312 228.976562 C 46.136719 223.546875 45.980469 218.109375 45.941406 212.671875 C 45.941406 211.828125 45.238281 211.125 44.394531 211.125 C 41.898438 211.386719 43.121094 214.65625 42.890625 216.339844 C 42.941406 220.554688 43.117188 224.769531 43.347656 228.976562 C 43.382812 231.003906 46.4375 230.992188 46.445312 228.976562 Z M 66.972656 244.292969 C 66.164062 238.871094 65.246094 233.46875 64.335938 228.0625 C 64.339844 228.128906 64.34375 228.191406 64.347656 228.257812 C 64.347656 228.292969 64.34375 228.328125 64.34375 228.363281 C 64.492188 226.398438 61.53125 226.070312 61.269531 228.023438 C 61.972656 233.582031 63.148438 239.136719 63.902344 244.714844 C 64.210938 246.71875 67.230469 246.289062 66.972656 244.292969 Z M 53.960938 272.703125 C 54.777344 272.496094 55.253906 271.601562 55.039062 270.800781 C 54.59375 268.621094 54.132812 266.449219 53.640625 264.285156 C 53.1875 262.132812 52.613281 260.019531 52.09375 257.882812 C 52.023438 257.097656 51.347656 256.464844 50.550781 256.464844 C 49.707031 256.464844 49.003906 257.171875 49.003906 258.011719 C 49.972656 262.535156 51.195312 267.054688 52.050781 271.621094 C 52.222656 272.449219 53.175781 272.917969 53.960938 272.703125 Z M 65.09375 299.144531 C 64.703125 297.246094 64.328125 295.414062 63.890625 293.347656 C 63.875 292.441406 63.28125 291.597656 62.308594 291.601562 C 61.476562 291.601562 60.738281 292.304688 60.761719 293.148438 C 61.066406 295.460938 61.679688 297.585938 62.105469 299.96875 C 62.628906 301.914062 65.617188 301.105469 65.09375 299.144531 Z M 316.019531 166.984375 C 316.277344 164.617188 316.503906 162.246094 316.703125 159.871094 C 316.574219 157.972656 318.382812 152.210938 315.503906 152.121094 C 314.691406 152.121094 313.910156 152.828125 313.953125 153.671875 C 314.03125 154.257812 313.984375 154.839844 313.960938 155.429688 C 313.691406 159.125 313.355469 162.847656 312.949219 166.5625 C 312.859375 167.402344 313.417969 168.191406 314.277344 168.308594 C 315.089844 168.421875 315.929688 167.828125 316.019531 166.984375 Z M 311.765625 217.546875 C 312.269531 214.703125 312.753906 211.84375 313.226562 208.996094 C 313.695312 206.359375 313.960938 203.691406 314.386719 201.050781 C 314.566406 200.226562 314.152344 199.378906 313.304688 199.144531 C 312.523438 198.929688 311.582031 199.402344 311.398438 200.222656 C 310.550781 205.863281 309.75 211.515625 308.695312 217.125 C 308.546875 217.957031 309.210938 218.757812 310.019531 218.867188 C 310.859375 218.992188 311.621094 218.382812 311.765625 217.546875 Z M 325.542969 241.105469 C 326.207031 238.234375 326.839844 235.355469 327.316406 232.445312 C 327.800781 229.730469 327.824219 226.972656 328.148438 224.242188 C 328.269531 223.40625 327.65625 222.613281 326.824219 222.5 C 325.980469 222.382812 325.199219 222.984375 325.078125 223.820312 C 324.847656 225.832031 324.785156 227.855469 324.542969 229.867188 C 324.140625 233.382812 323.34375 236.835938 322.550781 240.285156 C 322.363281 241.105469 322.796875 241.957031 323.636719 242.1875 C 324.425781 242.40625 325.351562 241.929688 325.542969 241.105469 Z M 302.273438 274.789062 C 302.800781 273.050781 303.296875 271.300781 303.738281 269.542969 C 303.945312 267.753906 305.960938 263.660156 303.054688 263.332031 C 301.308594 263.355469 301.535156 265.324219 301.25 266.542969 C 300.691406 269.046875 300.03125 271.511719 299.285156 273.964844 C 299.039062 274.773438 299.570312 275.648438 300.363281 275.871094 C 301.171875 276.097656 302.03125 275.605469 302.273438 274.789062 Z M 311.757812 299.523438 C 312.429688 296.152344 313.316406 292.792969 313.660156 289.371094 C 313.660156 288.527344 312.957031 287.824219 312.109375 287.824219 C 311.265625 287.824219 310.558594 288.527344 310.558594 289.371094 C 310.46875 290.527344 310.203125 291.667969 309.980469 292.800781 C 309.59375 294.769531 309.214844 296.742188 308.769531 298.699219 C 308.582031 299.519531 309.011719 300.375 309.847656 300.605469 C 310.636719 300.820312 311.566406 300.34375 311.757812 299.523438 Z M 26.542969 264.5625 C 27.390625 264.324219 27.796875 263.480469 27.625 262.65625 C 27.179688 260.566406 26.738281 258.476562 26.289062 256.382812 C 25.898438 254.4375 25.386719 252.519531 24.941406 250.585938 C 24.902344 249.757812 24.246094 249.066406 23.390625 249.066406 C 22.5625 249.066406 21.816406 249.773438 21.84375 250.613281 C 22.6875 254.902344 23.804688 259.175781 24.636719 263.480469 C 24.8125 264.304688 25.761719 264.773438 26.542969 264.5625 Z M 340.867188 268.289062 C 341.28125 266.230469 341.542969 264.167969 341.785156 262.085938 C 341.957031 260.023438 342.34375 257.988281 342.566406 255.941406 C 342.609375 255.097656 341.832031 254.394531 341.015625 254.394531 C 340.1875 254.394531 339.566406 255.035156 339.476562 255.824219 C 339.160156 257.84375 338.886719 259.867188 338.683594 261.902344 C 338.453125 263.902344 338.191406 265.890625 337.792969 267.871094 C 337.628906 268.699219 338.320312 269.507812 339.121094 269.613281 C 339.964844 269.738281 340.707031 269.121094 340.867188 268.289062 Z M 340.867188 268.289062 " fill-opacity="1" fill-rule="nonzero"/></svg>