<svg xmlns="http://www.w3.org/2000/svg" xmlns:xlink="http://www.w3.org/1999/xlink" width="500" zoomAndPan="magnify" viewBox="0 0 375 374.999991" height="500" preserveAspectRatio="xMidYMid meet" version="1.0"><defs><clipPath id="95d2688f6d"><path d="M 0 8.789062 L 375 8.789062 L 375 366.210938 L 0 366.210938 Z M 0 8.789062 " clip-rule="nonzero"/></clipPath><clipPath id="ca84070122"><path d="M 187.5 8.789062 L 231.761719 145.3125 L 375 145.3125 L 259.117188 229.6875 L 303.382812 366.210938 L 187.5 281.835938 L 71.617188 366.210938 L 115.882812 229.6875 L 0 145.3125 L 143.238281 145.3125 L 187.5 8.789062 " clip-rule="nonzero"/></clipPath><clipPath id="d7b3795b61"><path d="M 0 8.789062 L 375 8.789062 L 375 366.539062 L 0 366.539062 Z M 0 8.789062 " clip-rule="nonzero"/></clipPath><clipPath id="a822cc0eba"><path d="M 187.5 8.789062 L 231.761719 145.4375 L 375 145.4375 L 259.117188 229.890625 L 303.382812 366.539062 L 187.5 282.085938 L 71.617188 366.539062 L 115.882812 229.890625 L 0 145.4375 L 143.238281 145.4375 L 187.5 8.789062 " clip-rule="nonzero"/></clipPath></defs><g clip-path="url(#95d2688f6d)"><g clip-path="url(#ca84070122)"><path fill="#f2c487" d="M 0 8.789062 L 375 8.789062 L 375 366.210938 L 0 366.210938 Z M 0 8.789062 " fill-opacity="1" fill-rule="nonzero"/></g></g><g clip-path="url(#d7b3795b61)"><g clip-path="url(#a822cc0eba)"><path stroke-linecap="butt" transform="matrix(0.75, 0, 0, 0.750689, 0.0000045, 8.789062)" fill="none" stroke-linejoin="miter" d="M 249.999994 0.000000688899 L 309.01562 182.030805 L 499.999995 182.030805 L 345.489578 294.53169 L 404.510411 476.562494 L 249.999994 364.061609 L 95.489577 476.562494 L 154.510411 294.53169 L -0.000006 182.030805 L 190.984369 182.030805 L 249.999994 0.000000688899 " stroke="#faeeed" stroke-width="16" stroke-opacity="1" stroke-miterlimit="4"/></g></g></svg>