<svg xmlns="http://www.w3.org/2000/svg" xmlns:xlink="http://www.w3.org/1999/xlink" width="500" zoomAndPan="magnify" viewBox="0 0 375 374.999991" height="500" preserveAspectRatio="xMidYMid meet" version="1.0"><defs><clipPath id="aa518c4f58"><path d="M 5 28 L 373 28 L 373 215.578125 L 5 215.578125 Z M 5 28 " clip-rule="nonzero"/></clipPath><clipPath id="995149cc03"><path d="M 99 239 L 143 239 L 143 317 L 99 317 Z M 99 239 " clip-rule="nonzero"/></clipPath><clipPath id="4199c3c3b2"><path d="M 139.730469 239.820312 L 153.25 246.320312 L 113.261719 329.453125 L 99.742188 322.949219 Z M 139.730469 239.820312 " clip-rule="nonzero"/></clipPath><clipPath id="8e7fabfea4"><path d="M 98.421875 219.949219 L 153.167969 246.28125 L 113.179688 329.414062 L 58.433594 303.078125 Z M 98.421875 219.949219 " clip-rule="nonzero"/></clipPath><clipPath id="d6cb655530"><path d="M 99 242 L 130 242 L 130 274 L 99 274 Z M 99 242 " clip-rule="nonzero"/></clipPath><clipPath id="b19ee9a821"><path d="M 139.730469 239.820312 L 153.25 246.320312 L 113.261719 329.453125 L 99.742188 322.949219 Z M 139.730469 239.820312 " clip-rule="nonzero"/></clipPath><clipPath id="5ab44fe86f"><path d="M 98.421875 219.949219 L 153.167969 246.28125 L 113.179688 329.414062 L 58.433594 303.078125 Z M 98.421875 219.949219 " clip-rule="nonzero"/></clipPath><clipPath id="3a36f05b2f"><path d="M 81 259 L 135 259 L 135 317 L 81 317 Z M 81 259 " clip-rule="nonzero"/></clipPath><clipPath id="24c8bc87b8"><path d="M 79.410156 259.46875 L 134.15625 285.804688 L 113.351562 329.058594 L 58.605469 302.726562 Z M 79.410156 259.46875 " clip-rule="nonzero"/></clipPath><clipPath id="9a915ae4dc"><path d="M 98.421875 219.945312 L 153.167969 246.28125 L 113.179688 329.414062 L 58.433594 303.078125 Z M 98.421875 219.945312 " clip-rule="nonzero"/></clipPath><clipPath id="6df107fe37"><path d="M 98 259 L 130 259 L 130 274 L 98 274 Z M 98 259 " clip-rule="nonzero"/></clipPath><clipPath id="8e8a1caf29"><path d="M 79.410156 259.46875 L 134.15625 285.804688 L 113.351562 329.058594 L 58.605469 302.726562 Z M 79.410156 259.46875 " clip-rule="nonzero"/></clipPath><clipPath id="22ff2720d3"><path d="M 98.421875 219.945312 L 153.167969 246.28125 L 113.179688 329.414062 L 58.433594 303.078125 Z M 98.421875 219.945312 " clip-rule="nonzero"/></clipPath><clipPath id="50a37f54e1"><path d="M 81 230 L 110 230 L 110 309 L 81 309 Z M 81 230 " clip-rule="nonzero"/></clipPath><clipPath id="62cf558c2a"><path d="M 97.617188 221.621094 L 109.785156 227.472656 L 70.769531 308.578125 L 58.605469 302.726562 Z M 97.617188 221.621094 " clip-rule="nonzero"/></clipPath><clipPath id="1651663427"><path d="M 98.421875 219.949219 L 153.167969 246.28125 L 113.179688 329.414062 L 58.433594 303.082031 Z M 98.421875 219.949219 " clip-rule="nonzero"/></clipPath><clipPath id="e53d70d859"><path d="M 98 242 L 110 242 L 110 274 L 98 274 Z M 98 242 " clip-rule="nonzero"/></clipPath><clipPath id="e595260fd9"><path d="M 97.617188 221.621094 L 109.785156 227.472656 L 70.769531 308.578125 L 58.605469 302.726562 Z M 97.617188 221.621094 " clip-rule="nonzero"/></clipPath><clipPath id="24c5217218"><path d="M 98.421875 219.949219 L 153.167969 246.28125 L 113.179688 329.414062 L 58.433594 303.082031 Z M 98.421875 219.949219 " clip-rule="nonzero"/></clipPath><clipPath id="c658b43e7a"><path d="M 5 28 L 84 28 L 84 349.828125 L 5 349.828125 Z M 5 28 " clip-rule="nonzero"/></clipPath><clipPath id="c860978463"><path d="M 93 230 L 143 230 L 143 258 L 93 258 Z M 93 230 " clip-rule="nonzero"/></clipPath><clipPath id="26aa66c911"><path d="M 98.421875 219.945312 L 153.167969 246.28125 L 147.964844 257.09375 L 93.21875 230.761719 Z M 98.421875 219.945312 " clip-rule="nonzero"/></clipPath><clipPath id="2c0dcc7f42"><path d="M 98.421875 219.945312 L 153.167969 246.28125 L 113.179688 329.414062 L 58.433594 303.078125 Z M 98.421875 219.945312 " clip-rule="nonzero"/></clipPath><clipPath id="d42d428cad"><path d="M 98 242 L 130 242 L 130 258 L 98 258 Z M 98 242 " clip-rule="nonzero"/></clipPath><clipPath id="52e6d85ffe"><path d="M 98.421875 219.945312 L 153.167969 246.28125 L 147.964844 257.09375 L 93.21875 230.761719 Z M 98.421875 219.945312 " clip-rule="nonzero"/></clipPath><clipPath id="e7acdc0a03"><path d="M 98.421875 219.945312 L 153.167969 246.28125 L 113.179688 329.414062 L 58.433594 303.078125 Z M 98.421875 219.945312 " clip-rule="nonzero"/></clipPath><clipPath id="99dc05d2f5"><path d="M 145.773438 28 L 373 28 L 373 349.828125 L 145.773438 349.828125 Z M 145.773438 28 " clip-rule="nonzero"/></clipPath><clipPath id="727ca96e75"><path d="M 5 299.679688 L 373 299.679688 L 373 349.828125 L 5 349.828125 Z M 5 299.679688 " clip-rule="nonzero"/></clipPath><clipPath id="438a43b304"><path d="M 83 233 L 111 233 L 111 308 L 83 308 Z M 83 233 " clip-rule="nonzero"/></clipPath><clipPath id="deda59dd7e"><path d="M 98.566406 224.292969 L 110.734375 230.144531 L 73.671875 307.195312 L 61.503906 301.34375 Z M 98.566406 224.292969 " clip-rule="nonzero"/></clipPath><clipPath id="81030b9217"><path d="M 98.910156 223.585938 L 149.597656 247.96875 L 112.210938 325.695312 L 61.519531 301.3125 Z M 98.910156 223.585938 " clip-rule="nonzero"/></clipPath><clipPath id="560f7c5139"><path d="M 98 244 L 111 244 L 111 274 L 98 274 Z M 98 244 " clip-rule="nonzero"/></clipPath><clipPath id="6192da5e15"><path d="M 98.566406 224.292969 L 110.734375 230.144531 L 73.671875 307.195312 L 61.503906 301.34375 Z M 98.566406 224.292969 " clip-rule="nonzero"/></clipPath><clipPath id="eaf1f73975"><path d="M 98.910156 223.585938 L 149.597656 247.96875 L 112.210938 325.695312 L 61.519531 301.3125 Z M 98.910156 223.585938 " clip-rule="nonzero"/></clipPath><clipPath id="ebf319f998"><path d="M 94 233 L 140 233 L 140 259 L 94 259 Z M 94 233 " clip-rule="nonzero"/></clipPath><clipPath id="dee187e247"><path d="M 98.90625 223.585938 L 149.597656 247.96875 L 144.71875 258.105469 L 94.03125 233.722656 Z M 98.90625 223.585938 " clip-rule="nonzero"/></clipPath><clipPath id="11175821d8"><path d="M 98.90625 223.585938 L 149.597656 247.96875 L 112.210938 325.695312 L 61.519531 301.3125 Z M 98.90625 223.585938 " clip-rule="nonzero"/></clipPath><clipPath id="9113eba9ae"><path d="M 98 244 L 128 244 L 128 259 L 98 259 Z M 98 244 " clip-rule="nonzero"/></clipPath><clipPath id="e92c052e8d"><path d="M 98.90625 223.585938 L 149.597656 247.96875 L 144.71875 258.105469 L 94.03125 233.722656 Z M 98.90625 223.585938 " clip-rule="nonzero"/></clipPath><clipPath id="937bbd58d9"><path d="M 98.90625 223.585938 L 149.597656 247.96875 L 112.210938 325.695312 L 61.519531 301.3125 Z M 98.90625 223.585938 " clip-rule="nonzero"/></clipPath><clipPath id="1ac59d0e01"><path d="M 99 242 L 140 242 L 140 314 L 99 314 Z M 99 242 " clip-rule="nonzero"/></clipPath><clipPath id="49899a3ef7"><path d="M 137.339844 242.074219 L 149.503906 247.925781 L 112.117188 325.648438 L 99.953125 319.796875 Z M 137.339844 242.074219 " clip-rule="nonzero"/></clipPath><clipPath id="ab13589cc6"><path d="M 98.90625 223.585938 L 149.597656 247.96875 L 112.207031 325.695312 L 61.519531 301.308594 Z M 98.90625 223.585938 " clip-rule="nonzero"/></clipPath><clipPath id="8595f4fd3b"><path d="M 99 244 L 128 244 L 128 274 L 99 274 Z M 99 244 " clip-rule="nonzero"/></clipPath><clipPath id="496ee1565a"><path d="M 137.339844 242.074219 L 149.503906 247.925781 L 112.117188 325.648438 L 99.953125 319.796875 Z M 137.339844 242.074219 " clip-rule="nonzero"/></clipPath><clipPath id="390c6e9e30"><path d="M 98.90625 223.585938 L 149.597656 247.96875 L 112.207031 325.695312 L 61.519531 301.308594 Z M 98.90625 223.585938 " clip-rule="nonzero"/></clipPath><clipPath id="9f8b2db23e"><path d="M 83 260 L 132 260 L 132 314 L 83 314 Z M 83 260 " clip-rule="nonzero"/></clipPath><clipPath id="2be08f366d"><path d="M 81.160156 260.476562 L 131.851562 284.859375 L 112.34375 325.414062 L 61.65625 301.03125 Z M 81.160156 260.476562 " clip-rule="nonzero"/></clipPath><clipPath id="166863c74c"><path d="M 98.90625 223.585938 L 149.597656 247.96875 L 112.210938 325.695312 L 61.519531 301.3125 Z M 98.90625 223.585938 " clip-rule="nonzero"/></clipPath><clipPath id="501bdd4846"><path d="M 98 260 L 128 260 L 128 274 L 98 274 Z M 98 260 " clip-rule="nonzero"/></clipPath><clipPath id="530cb2c686"><path d="M 81.160156 260.476562 L 131.851562 284.859375 L 112.34375 325.414062 L 61.65625 301.03125 Z M 81.160156 260.476562 " clip-rule="nonzero"/></clipPath><clipPath id="cbcb682b95"><path d="M 98.90625 223.585938 L 149.597656 247.96875 L 112.210938 325.695312 L 61.519531 301.3125 Z M 98.90625 223.585938 " clip-rule="nonzero"/></clipPath><clipPath id="224bea2e84"><path d="M 99 257 L 118 257 L 118 273 L 99 273 Z M 99 257 " clip-rule="nonzero"/></clipPath><clipPath id="7c9ae73a65"><path d="M 103.21875 239.820312 L 132.28125 253.800781 L 120.902344 277.457031 L 91.839844 263.476562 Z M 103.21875 239.820312 " clip-rule="nonzero"/></clipPath><clipPath id="e1ddbcf6db"><path d="M 103.21875 239.820312 L 132.28125 253.800781 L 120.902344 277.457031 L 91.839844 263.476562 Z M 103.21875 239.820312 " clip-rule="nonzero"/></clipPath><clipPath id="ef07652a8b"><path d="M 118 261 L 127 261 L 127 269 L 118 269 Z M 118 261 " clip-rule="nonzero"/></clipPath><clipPath id="12f609cc94"><path d="M 103.21875 239.820312 L 132.28125 253.800781 L 120.902344 277.457031 L 91.839844 263.476562 Z M 103.21875 239.820312 " clip-rule="nonzero"/></clipPath><clipPath id="ebfb636987"><path d="M 103.21875 239.820312 L 132.28125 253.800781 L 120.902344 277.457031 L 91.839844 263.476562 Z M 103.21875 239.820312 " clip-rule="nonzero"/></clipPath><clipPath id="0a10e0eec8"><path d="M 97 249 L 104 249 L 104 259 L 97 259 Z M 97 249 " clip-rule="nonzero"/></clipPath><clipPath id="a88119ce25"><path d="M 103.21875 239.820312 L 132.28125 253.800781 L 120.902344 277.457031 L 91.839844 263.476562 Z M 103.21875 239.820312 " clip-rule="nonzero"/></clipPath><clipPath id="56986bd079"><path d="M 103.21875 239.820312 L 132.28125 253.800781 L 120.902344 277.457031 L 91.839844 263.476562 Z M 103.21875 239.820312 " clip-rule="nonzero"/></clipPath><clipPath id="097780f206"><path d="M 105 245 L 115 245 L 115 256 L 105 256 Z M 105 245 " clip-rule="nonzero"/></clipPath><clipPath id="80b50d3ee8"><path d="M 103.21875 239.820312 L 132.28125 253.800781 L 120.902344 277.457031 L 91.839844 263.476562 Z M 103.21875 239.820312 " clip-rule="nonzero"/></clipPath><clipPath id="fd9cf719ad"><path d="M 103.21875 239.820312 L 132.28125 253.800781 L 120.902344 277.457031 L 91.839844 263.476562 Z M 103.21875 239.820312 " clip-rule="nonzero"/></clipPath><clipPath id="feb3a4fdfd"><path d="M 115 249 L 125 249 L 125 261 L 115 261 Z M 115 249 " clip-rule="nonzero"/></clipPath><clipPath id="ada67cd443"><path d="M 103.21875 239.820312 L 132.28125 253.800781 L 120.902344 277.457031 L 91.839844 263.476562 Z M 103.21875 239.820312 " clip-rule="nonzero"/></clipPath><clipPath id="61bac05dd3"><path d="M 103.21875 239.820312 L 132.28125 253.800781 L 120.902344 277.457031 L 91.839844 263.476562 Z M 103.21875 239.820312 " clip-rule="nonzero"/></clipPath><clipPath id="3dcd2ecaae"><path d="M 128 240 L 140 240 L 140 261 L 128 261 Z M 128 240 " clip-rule="nonzero"/></clipPath><clipPath id="9709d7a9a0"><path d="M 134.757812 240.832031 L 149.628906 247.984375 L 143.777344 260.148438 L 128.90625 252.996094 Z M 134.757812 240.832031 " clip-rule="nonzero"/></clipPath><clipPath id="da5f6e8c13"><path d="M 98.90625 223.585938 L 149.597656 247.96875 L 112.210938 325.695312 L 61.519531 301.3125 Z M 98.90625 223.585938 " clip-rule="nonzero"/></clipPath></defs><g clip-path="url(#aa518c4f58)"><path fill="#d7837f" d="M 367.558594 258.128906 C 363.914062 261.28125 360.074219 264.203125 356.171875 267.027344 C 346.644531 273.65625 337.332031 280.90625 326.523438 285.570312 C 306.8125 293.789062 284.199219 293.460938 264 287.113281 C 262.273438 212.015625 182.871094 217.9375 154.839844 143.933594 C 154.703125 143.722656 154.605469 143.5 154.539062 143.269531 C 157.441406 138.429688 159.320312 132.839844 159.984375 126.96875 C 163.367188 106.097656 162.789062 83.675781 154.042969 64.136719 C 148.265625 51.742188 139.332031 39.984375 127.546875 32.808594 C 112.96875 25.0625 95.257812 28.75 80.441406 33.996094 C 69.570312 38.796875 61.589844 49.144531 49.453125 51.292969 C 45.234375 52.296875 41.078125 52.035156 36.917969 51.769531 C 32.425781 51.484375 27.921875 51.203125 23.289062 52.507812 C 8.996094 56.746094 4.402344 74.28125 9.601562 87.082031 C 13.324219 96.9375 19.832031 105.691406 27.167969 113.171875 C 41.617188 127.394531 63.371094 133.261719 84.1875 134.785156 C 80.796875 138.941406 77.667969 143.335938 74.953125 147.957031 C 64.199219 166.109375 60.140625 187.53125 61.144531 208.460938 C 60.707031 231.710938 63.84375 264.335938 52.71875 285.015625 C 45.367188 294.648438 31.660156 293.699219 21.164062 297.46875 C 5.523438 300.992188 0.0195312 319.957031 13.210938 329.988281 C 22.164062 337.136719 34.003906 336.816406 44.871094 335.839844 C 67.113281 334.066406 87.070312 321.980469 102.90625 306.835938 C 111.480469 319.65625 123.886719 329.964844 137.3125 337.398438 C 137.640625 337.5625 137.992188 337.636719 138.34375 337.636719 C 139.429688 337.636719 140.515625 336.929688 140.933594 335.925781 C 141.882812 333.570312 139.78125 332.46875 138.027344 331.351562 C 135.796875 329.800781 133.332031 327.90625 130.921875 325.976562 C 122.207031 319.050781 113.707031 311.523438 107.9375 301.875 C 120.890625 288.101562 130.726562 270.488281 132.597656 251.464844 C 134.460938 236.175781 124.433594 210.835938 105.433594 220.820312 C 95.945312 226.382812 91.914062 237.578125 89.769531 247.8125 C 85.941406 265.449219 89.386719 284.457031 98.671875 299.886719 C 79.605469 319.066406 51.714844 333.117188 24.265625 326.914062 C 16.253906 324.867188 9.707031 315.332031 16.878906 308.582031 C 22.675781 304.121094 30.484375 303.785156 37.347656 301.957031 C 58.238281 298.484375 64.613281 285.421875 67.441406 265.964844 C 72.257812 236.878906 66.5 207.117188 71.707031 178.144531 C 73.984375 166.671875 78.339844 155.589844 84.941406 145.90625 C 86.339844 142.707031 92.136719 138.777344 91.226562 135.144531 C 95.144531 135.257812 98.996094 135.230469 102.714844 135.085938 C 106.148438 146.769531 114.570312 159.246094 127.972656 159.441406 C 137.589844 159.066406 145.554688 154.632812 151.164062 147.96875 C 152.472656 152.429688 155.074219 156.777344 156.777344 160.835938 C 183.507812 220.625 255.734375 220.085938 257.410156 284.859375 C 237.269531 277.613281 218.523438 266.355469 197.636719 261.308594 C 188.414062 260.304688 178.460938 260.945312 170.410156 265.953125 C 160.785156 271.449219 151.046875 279.347656 149.722656 291.082031 C 147.675781 299.699219 150.09375 308.527344 152.921875 316.6875 C 159.40625 334.960938 176.757812 349.160156 196.425781 349.78125 C 197.191406 349.824219 197.953125 349.839844 198.71875 349.839844 C 209.929688 349.839844 220.785156 345.773438 230.585938 340.558594 C 248.164062 331.628906 261.742188 314.640625 263.671875 294.6875 C 284.148438 300.5625 306.722656 300.402344 326.703125 292.730469 C 343.171875 285.671875 357.621094 274.4375 371.566406 263.351562 C 375.007812 260.777344 370.828125 255.472656 367.535156 258.128906 Z M 97.734375 249.433594 C 99.785156 240.777344 102.917969 228.777344 112.929688 226.699219 C 121.246094 226.835938 123.546875 237.480469 124.296875 244.148438 C 125.238281 262.832031 116.398438 281.085938 103.894531 294.566406 C 97.324219 280.648438 94.71875 264.609375 97.734375 249.429688 Z M 153.792969 111.234375 C 152.546875 128.46875 149.847656 147.957031 129.492188 151.332031 C 110.640625 150.753906 108.433594 125.789062 105.792969 111.457031 C 104.746094 107.535156 106.457031 99.554688 100.652344 99.554688 C 100.5625 99.554688 100.472656 99.554688 100.382812 99.554688 C 94.230469 100.75 98.472656 110.527344 98.347656 114.886719 C 99.160156 120.402344 100.183594 125.902344 101.617188 131.296875 C 78.644531 130.332031 52.101562 126.667969 34.078125 111.242188 C 24.042969 101.371094 13.546875 88.609375 13.820312 73.808594 C 14.1875 66.828125 18.878906 59.640625 26.050781 58.3125 C 29.8125 57.824219 33.625 58.050781 37.433594 58.273438 C 42.957031 58.597656 48.484375 58.921875 53.867188 57.082031 C 64.4375 54.4375 72.183594 46.382812 81.550781 41.375 C 93.363281 36.523438 107.386719 33.820312 119.792969 37.90625 C 129.34375 41.664062 135.675781 50.042969 141.824219 57.96875 C 152.214844 73.554688 155.15625 92.820312 153.792969 111.230469 Z M 202.210938 341.386719 C 185.789062 342.648438 169.859375 332.78125 162.976562 317.9375 C 158.859375 308.882812 156.015625 298.511719 159.234375 288.753906 C 161.546875 282.175781 167.304688 277.867188 172.863281 274.085938 C 178.195312 270.226562 184.730469 268.671875 191.242188 268.671875 C 193.355469 268.671875 195.460938 268.835938 197.527344 269.136719 C 218.246094 274.597656 237.050781 285.621094 257.265625 292.632812 C 254.925781 320.355469 228.257812 338.71875 202.210938 341.386719 Z M 202.210938 341.386719 " fill-opacity="1" fill-rule="nonzero"/></g><g clip-path="url(#995149cc03)"><g clip-path="url(#4199c3c3b2)"><g clip-path="url(#8e7fabfea4)"><path fill="#d7837f" d="M 85.675781 316.183594 C 86.636719 316.644531 87.769531 316.582031 88.667969 316.011719 C 90.449219 314.882812 132.335938 288.199219 139.699219 272.890625 C 146.828125 258.074219 140.53125 240.203125 125.664062 233.050781 C 110.796875 225.898438 92.90625 232.136719 85.777344 246.953125 C 78.414062 262.261719 83.714844 311.644531 83.945312 313.738281 C 84.058594 314.796875 84.714844 315.722656 85.675781 316.183594 Z M 123 238.59375 C 134.800781 244.269531 139.796875 258.453125 134.140625 270.214844 C 129.222656 280.4375 103.324219 298.992188 89.578125 308.074219 C 88.089844 291.664062 86.421875 259.851562 91.339844 249.625 C 96.996094 237.867188 111.199219 232.917969 123 238.59375 Z M 123 238.59375 " fill-opacity="1" fill-rule="nonzero"/></g></g></g><g clip-path="url(#d6cb655530)"><g clip-path="url(#b19ee9a821)"><g clip-path="url(#5ab44fe86f)"><path fill="#d7837f" d="M 127.625 264.828125 C 131.324219 257.132812 128.054688 247.851562 120.332031 244.136719 C 112.609375 240.421875 103.320312 243.660156 99.617188 251.355469 C 95.914062 259.050781 99.183594 268.328125 106.90625 272.042969 C 114.628906 275.757812 123.921875 272.519531 127.625 264.828125 Z M 105.175781 254.03125 C 107.410156 249.390625 113.011719 247.4375 117.667969 249.679688 C 122.320312 251.917969 124.292969 257.515625 122.0625 262.152344 C 119.832031 266.789062 114.226562 268.742188 109.574219 266.503906 C 104.917969 264.261719 102.945312 258.667969 105.175781 254.03125 Z M 105.175781 254.03125 " fill-opacity="1" fill-rule="nonzero"/></g></g></g><g clip-path="url(#3a36f05b2f)"><g clip-path="url(#24c8bc87b8)"><g clip-path="url(#9a915ae4dc)"><path fill="#d7837f" d="M 85.675781 316.183594 C 86.636719 316.644531 87.769531 316.582031 88.667969 316.011719 C 90.449219 314.882812 132.335938 288.199219 139.703125 272.890625 C 146.828125 258.074219 140.53125 240.203125 125.664062 233.050781 C 110.800781 225.898438 92.90625 232.136719 85.78125 246.953125 C 78.414062 262.261719 83.714844 311.644531 83.945312 313.738281 C 84.0625 314.796875 84.714844 315.722656 85.675781 316.183594 Z M 123 238.59375 C 134.800781 244.269531 139.796875 258.453125 134.140625 270.214844 C 129.226562 280.433594 103.328125 298.992188 89.578125 308.074219 C 88.09375 291.664062 86.421875 259.851562 91.339844 249.625 C 97 237.867188 111.199219 232.917969 123 238.59375 Z M 123 238.59375 " fill-opacity="1" fill-rule="nonzero"/></g></g></g><g clip-path="url(#6df107fe37)"><g clip-path="url(#8e8a1caf29)"><g clip-path="url(#22ff2720d3)"><path fill="#d7837f" d="M 127.625 264.828125 C 131.328125 257.132812 128.058594 247.851562 120.335938 244.136719 C 112.613281 240.421875 103.320312 243.660156 99.617188 251.355469 C 95.917969 259.046875 99.1875 268.328125 106.910156 272.042969 C 114.632812 275.757812 123.921875 272.519531 127.625 264.828125 Z M 105.179688 254.03125 C 107.410156 249.390625 113.015625 247.4375 117.667969 249.679688 C 122.324219 251.917969 124.292969 257.515625 122.0625 262.152344 C 119.832031 266.789062 114.230469 268.742188 109.574219 266.5 C 104.921875 264.261719 102.949219 258.667969 105.179688 254.03125 Z M 105.179688 254.03125 " fill-opacity="1" fill-rule="nonzero"/></g></g></g><g clip-path="url(#50a37f54e1)"><g clip-path="url(#62cf558c2a)"><g clip-path="url(#1651663427)"><path fill="#d7837f" d="M 85.675781 316.183594 C 86.636719 316.648438 87.769531 316.582031 88.667969 316.011719 C 90.449219 314.882812 132.335938 288.203125 139.703125 272.890625 C 146.828125 258.074219 140.53125 240.203125 125.664062 233.050781 C 110.796875 225.902344 92.90625 232.136719 85.777344 246.953125 C 78.414062 262.261719 83.714844 311.644531 83.945312 313.738281 C 84.058594 314.796875 84.714844 315.722656 85.675781 316.183594 Z M 123 238.59375 C 134.800781 244.269531 139.796875 258.453125 134.140625 270.214844 C 129.222656 280.4375 103.324219 298.992188 89.578125 308.074219 C 88.09375 291.664062 86.421875 259.855469 91.339844 249.628906 C 96.996094 237.867188 111.199219 232.917969 123 238.59375 Z M 123 238.59375 " fill-opacity="1" fill-rule="nonzero"/></g></g></g><g clip-path="url(#e53d70d859)"><g clip-path="url(#e595260fd9)"><g clip-path="url(#24c5217218)"><path fill="#d7837f" d="M 127.625 264.828125 C 131.324219 257.132812 128.054688 247.851562 120.332031 244.136719 C 112.609375 240.421875 103.320312 243.660156 99.617188 251.355469 C 95.917969 259.050781 99.1875 268.332031 106.910156 272.042969 C 114.632812 275.757812 123.921875 272.523438 127.625 264.828125 Z M 105.179688 254.03125 C 107.410156 249.394531 113.011719 247.441406 117.667969 249.679688 C 122.320312 251.917969 124.292969 257.515625 122.0625 262.152344 C 119.832031 266.792969 114.230469 268.742188 109.574219 266.503906 C 104.921875 264.265625 102.945312 258.667969 105.179688 254.03125 Z M 105.179688 254.03125 " fill-opacity="1" fill-rule="nonzero"/></g></g></g><g clip-path="url(#c658b43e7a)"><path fill="#d7837f" d="M 367.558594 258.128906 C 363.914062 261.28125 360.074219 264.203125 356.171875 267.027344 C 346.644531 273.65625 337.332031 280.90625 326.523438 285.570312 C 306.8125 293.789062 284.199219 293.460938 264 287.113281 C 262.273438 212.015625 182.871094 217.9375 154.839844 143.933594 C 154.703125 143.722656 154.605469 143.5 154.539062 143.269531 C 157.441406 138.429688 159.320312 132.839844 159.984375 126.96875 C 163.367188 106.097656 162.789062 83.675781 154.042969 64.136719 C 148.265625 51.742188 139.332031 39.984375 127.546875 32.808594 C 112.96875 25.0625 95.257812 28.75 80.441406 33.996094 C 69.570312 38.796875 61.589844 49.144531 49.453125 51.292969 C 45.234375 52.296875 41.078125 52.035156 36.917969 51.769531 C 32.425781 51.484375 27.921875 51.203125 23.289062 52.507812 C 8.996094 56.746094 4.402344 74.28125 9.601562 87.082031 C 13.324219 96.9375 19.832031 105.691406 27.167969 113.171875 C 41.617188 127.394531 63.371094 133.261719 84.1875 134.785156 C 80.796875 138.941406 77.667969 143.335938 74.953125 147.957031 C 64.199219 166.109375 60.140625 187.53125 61.144531 208.460938 C 60.707031 231.710938 63.84375 264.335938 52.71875 285.015625 C 45.367188 294.648438 31.660156 293.699219 21.164062 297.46875 C 5.523438 300.992188 0.0195312 319.957031 13.210938 329.988281 C 22.164062 337.136719 34.003906 336.816406 44.871094 335.839844 C 67.113281 334.066406 87.070312 321.980469 102.90625 306.835938 C 111.480469 319.65625 123.886719 329.964844 137.3125 337.398438 C 137.640625 337.5625 137.992188 337.636719 138.34375 337.636719 C 139.429688 337.636719 140.515625 336.929688 140.933594 335.925781 C 141.882812 333.570312 139.78125 332.46875 138.027344 331.351562 C 135.796875 329.800781 133.332031 327.90625 130.921875 325.976562 C 122.207031 319.050781 113.707031 311.523438 107.9375 301.875 C 120.890625 288.101562 130.726562 270.488281 132.597656 251.464844 C 134.460938 236.175781 124.433594 210.835938 105.433594 220.820312 C 95.945312 226.382812 91.914062 237.578125 89.769531 247.8125 C 85.941406 265.449219 89.386719 284.457031 98.671875 299.886719 C 79.605469 319.066406 51.714844 333.117188 24.265625 326.914062 C 16.253906 324.867188 9.707031 315.332031 16.878906 308.582031 C 22.675781 304.121094 30.484375 303.785156 37.347656 301.957031 C 58.238281 298.484375 64.613281 285.421875 67.441406 265.964844 C 72.257812 236.878906 66.5 207.117188 71.707031 178.144531 C 73.984375 166.671875 78.339844 155.589844 84.941406 145.90625 C 86.339844 142.707031 92.136719 138.777344 91.226562 135.144531 C 95.144531 135.257812 98.996094 135.230469 102.714844 135.085938 C 106.148438 146.769531 114.570312 159.246094 127.972656 159.441406 C 137.589844 159.066406 145.554688 154.632812 151.164062 147.96875 C 152.472656 152.429688 155.074219 156.777344 156.777344 160.835938 C 183.507812 220.625 255.734375 220.085938 257.410156 284.859375 C 237.269531 277.613281 218.523438 266.355469 197.636719 261.308594 C 188.414062 260.304688 178.460938 260.945312 170.410156 265.953125 C 160.785156 271.449219 151.046875 279.347656 149.722656 291.082031 C 147.675781 299.699219 150.09375 308.527344 152.921875 316.6875 C 159.40625 334.960938 176.757812 349.160156 196.425781 349.78125 C 197.191406 349.824219 197.953125 349.839844 198.71875 349.839844 C 209.929688 349.839844 220.785156 345.773438 230.585938 340.558594 C 248.164062 331.628906 261.742188 314.640625 263.671875 294.6875 C 284.148438 300.5625 306.722656 300.402344 326.703125 292.730469 C 343.171875 285.671875 357.621094 274.4375 371.566406 263.351562 C 375.007812 260.777344 370.828125 255.472656 367.535156 258.128906 Z M 97.734375 249.433594 C 99.785156 240.777344 102.917969 228.777344 112.929688 226.699219 C 121.246094 226.835938 123.546875 237.480469 124.296875 244.148438 C 125.238281 262.832031 116.398438 281.085938 103.894531 294.566406 C 97.324219 280.648438 94.71875 264.609375 97.734375 249.429688 Z M 153.792969 111.234375 C 152.546875 128.46875 149.847656 147.957031 129.492188 151.332031 C 110.640625 150.753906 108.433594 125.789062 105.792969 111.457031 C 104.746094 107.535156 106.457031 99.554688 100.652344 99.554688 C 100.5625 99.554688 100.472656 99.554688 100.382812 99.554688 C 94.230469 100.75 98.472656 110.527344 98.347656 114.886719 C 99.160156 120.402344 100.183594 125.902344 101.617188 131.296875 C 78.644531 130.332031 52.101562 126.667969 34.078125 111.242188 C 24.042969 101.371094 13.546875 88.609375 13.820312 73.808594 C 14.1875 66.828125 18.878906 59.640625 26.050781 58.3125 C 29.8125 57.824219 33.625 58.050781 37.433594 58.273438 C 42.957031 58.597656 48.484375 58.921875 53.867188 57.082031 C 64.4375 54.4375 72.183594 46.382812 81.550781 41.375 C 93.363281 36.523438 107.386719 33.820312 119.792969 37.90625 C 129.34375 41.664062 135.675781 50.042969 141.824219 57.96875 C 152.214844 73.554688 155.15625 92.820312 153.792969 111.230469 Z M 202.210938 341.386719 C 185.789062 342.648438 169.859375 332.78125 162.976562 317.9375 C 158.859375 308.882812 156.015625 298.511719 159.234375 288.753906 C 161.546875 282.175781 167.304688 277.867188 172.863281 274.085938 C 178.195312 270.226562 184.730469 268.671875 191.242188 268.671875 C 193.355469 268.671875 195.460938 268.835938 197.527344 269.136719 C 218.246094 274.597656 237.050781 285.621094 257.265625 292.632812 C 254.925781 320.355469 228.257812 338.71875 202.210938 341.386719 Z M 202.210938 341.386719 " fill-opacity="1" fill-rule="nonzero"/></g><g clip-path="url(#c860978463)"><g clip-path="url(#26aa66c911)"><g clip-path="url(#2c0dcc7f42)"><path fill="#d7837f" d="M 85.675781 316.183594 C 86.636719 316.644531 87.769531 316.582031 88.667969 316.011719 C 90.445312 314.882812 132.335938 288.199219 139.699219 272.890625 C 146.828125 258.074219 140.53125 240.203125 125.664062 233.050781 C 110.796875 225.898438 92.90625 232.136719 85.777344 246.949219 C 78.414062 262.261719 83.710938 311.644531 83.941406 313.738281 C 84.058594 314.796875 84.714844 315.722656 85.675781 316.183594 Z M 123 238.59375 C 134.800781 244.269531 139.796875 258.453125 134.140625 270.214844 C 129.222656 280.433594 103.324219 298.992188 89.578125 308.074219 C 88.089844 291.664062 86.421875 259.851562 91.339844 249.625 C 96.996094 237.867188 111.195312 232.917969 123 238.59375 Z M 123 238.59375 " fill-opacity="1" fill-rule="nonzero"/></g></g></g><g clip-path="url(#d42d428cad)"><g clip-path="url(#52e6d85ffe)"><g clip-path="url(#e7acdc0a03)"><path fill="#d7837f" d="M 127.621094 264.828125 C 131.324219 257.128906 128.054688 247.851562 120.332031 244.136719 C 112.609375 240.421875 103.316406 243.660156 99.617188 251.355469 C 95.914062 259.046875 99.183594 268.328125 106.90625 272.042969 C 114.628906 275.757812 123.921875 272.519531 127.621094 264.828125 Z M 105.175781 254.03125 C 107.410156 249.390625 113.011719 247.4375 117.667969 249.675781 C 122.320312 251.917969 124.292969 257.511719 122.0625 262.152344 C 119.832031 266.789062 114.226562 268.738281 109.574219 266.5 C 104.917969 264.261719 102.945312 258.667969 105.175781 254.03125 Z M 105.175781 254.03125 " fill-opacity="1" fill-rule="nonzero"/></g></g></g><g clip-path="url(#99dc05d2f5)"><path fill="#d7837f" d="M 367.558594 258.128906 C 363.914062 261.28125 360.074219 264.203125 356.171875 267.027344 C 346.644531 273.65625 337.332031 280.90625 326.523438 285.570312 C 306.8125 293.789062 284.199219 293.460938 264 287.113281 C 262.273438 212.015625 182.871094 217.9375 154.839844 143.933594 C 154.703125 143.722656 154.605469 143.5 154.539062 143.269531 C 157.441406 138.429688 159.320312 132.839844 159.984375 126.96875 C 163.367188 106.097656 162.789062 83.675781 154.042969 64.136719 C 148.265625 51.742188 139.332031 39.984375 127.546875 32.808594 C 112.96875 25.0625 95.257812 28.75 80.441406 33.996094 C 69.570312 38.796875 61.589844 49.144531 49.453125 51.292969 C 45.234375 52.296875 41.078125 52.035156 36.917969 51.769531 C 32.425781 51.484375 27.921875 51.203125 23.289062 52.507812 C 8.996094 56.746094 4.402344 74.28125 9.601562 87.082031 C 13.324219 96.9375 19.832031 105.691406 27.167969 113.171875 C 41.617188 127.394531 63.371094 133.261719 84.1875 134.785156 C 80.796875 138.941406 77.667969 143.335938 74.953125 147.957031 C 64.199219 166.109375 60.140625 187.53125 61.144531 208.460938 C 60.707031 231.710938 63.84375 264.335938 52.71875 285.015625 C 45.367188 294.648438 31.660156 293.699219 21.164062 297.46875 C 5.523438 300.992188 0.0195312 319.957031 13.210938 329.988281 C 22.164062 337.136719 34.003906 336.816406 44.871094 335.839844 C 67.113281 334.066406 87.070312 321.980469 102.90625 306.835938 C 111.480469 319.65625 123.886719 329.964844 137.3125 337.398438 C 137.640625 337.5625 137.992188 337.636719 138.34375 337.636719 C 139.429688 337.636719 140.515625 336.929688 140.933594 335.925781 C 141.882812 333.570312 139.78125 332.46875 138.027344 331.351562 C 135.796875 329.800781 133.332031 327.90625 130.921875 325.976562 C 122.207031 319.050781 113.707031 311.523438 107.9375 301.875 C 120.890625 288.101562 130.726562 270.488281 132.597656 251.464844 C 134.460938 236.175781 124.433594 210.835938 105.433594 220.820312 C 95.945312 226.382812 91.914062 237.578125 89.769531 247.8125 C 85.941406 265.449219 89.386719 284.457031 98.671875 299.886719 C 79.605469 319.066406 51.714844 333.117188 24.265625 326.914062 C 16.253906 324.867188 9.707031 315.332031 16.878906 308.582031 C 22.675781 304.121094 30.484375 303.785156 37.347656 301.957031 C 58.238281 298.484375 64.613281 285.421875 67.441406 265.964844 C 72.257812 236.878906 66.5 207.117188 71.707031 178.144531 C 73.984375 166.671875 78.339844 155.589844 84.941406 145.90625 C 86.339844 142.707031 92.136719 138.777344 91.226562 135.144531 C 95.144531 135.257812 98.996094 135.230469 102.714844 135.085938 C 106.148438 146.769531 114.570312 159.246094 127.972656 159.441406 C 137.589844 159.066406 145.554688 154.632812 151.164062 147.96875 C 152.472656 152.429688 155.074219 156.777344 156.777344 160.835938 C 183.507812 220.625 255.734375 220.085938 257.410156 284.859375 C 237.269531 277.613281 218.523438 266.355469 197.636719 261.308594 C 188.414062 260.304688 178.460938 260.945312 170.410156 265.953125 C 160.785156 271.449219 151.046875 279.347656 149.722656 291.082031 C 147.675781 299.699219 150.09375 308.527344 152.921875 316.6875 C 159.40625 334.960938 176.757812 349.160156 196.425781 349.78125 C 197.191406 349.824219 197.953125 349.839844 198.71875 349.839844 C 209.929688 349.839844 220.785156 345.773438 230.585938 340.558594 C 248.164062 331.628906 261.742188 314.640625 263.671875 294.6875 C 284.148438 300.5625 306.722656 300.402344 326.703125 292.730469 C 343.171875 285.671875 357.621094 274.4375 371.566406 263.351562 C 375.007812 260.777344 370.828125 255.472656 367.535156 258.128906 Z M 97.734375 249.433594 C 99.785156 240.777344 102.917969 228.777344 112.929688 226.699219 C 121.246094 226.835938 123.546875 237.480469 124.296875 244.148438 C 125.238281 262.832031 116.398438 281.085938 103.894531 294.566406 C 97.324219 280.648438 94.71875 264.609375 97.734375 249.429688 Z M 153.792969 111.234375 C 152.546875 128.46875 149.847656 147.957031 129.492188 151.332031 C 110.640625 150.753906 108.433594 125.789062 105.792969 111.457031 C 104.746094 107.535156 106.457031 99.554688 100.652344 99.554688 C 100.5625 99.554688 100.472656 99.554688 100.382812 99.554688 C 94.230469 100.75 98.472656 110.527344 98.347656 114.886719 C 99.160156 120.402344 100.183594 125.902344 101.617188 131.296875 C 78.644531 130.332031 52.101562 126.667969 34.078125 111.242188 C 24.042969 101.371094 13.546875 88.609375 13.820312 73.808594 C 14.1875 66.828125 18.878906 59.640625 26.050781 58.3125 C 29.8125 57.824219 33.625 58.050781 37.433594 58.273438 C 42.957031 58.597656 48.484375 58.921875 53.867188 57.082031 C 64.4375 54.4375 72.183594 46.382812 81.550781 41.375 C 93.363281 36.523438 107.386719 33.820312 119.792969 37.90625 C 129.34375 41.664062 135.675781 50.042969 141.824219 57.96875 C 152.214844 73.554688 155.15625 92.820312 153.792969 111.230469 Z M 202.210938 341.386719 C 185.789062 342.648438 169.859375 332.78125 162.976562 317.9375 C 158.859375 308.882812 156.015625 298.511719 159.234375 288.753906 C 161.546875 282.175781 167.304688 277.867188 172.863281 274.085938 C 178.195312 270.226562 184.730469 268.671875 191.242188 268.671875 C 193.355469 268.671875 195.460938 268.835938 197.527344 269.136719 C 218.246094 274.597656 237.050781 285.621094 257.265625 292.632812 C 254.925781 320.355469 228.257812 338.71875 202.210938 341.386719 Z M 202.210938 341.386719 " fill-opacity="1" fill-rule="nonzero"/></g><g clip-path="url(#727ca96e75)"><path fill="#d7837f" d="M 367.558594 258.128906 C 363.914062 261.28125 360.074219 264.203125 356.171875 267.027344 C 346.644531 273.65625 337.332031 280.90625 326.523438 285.570312 C 306.8125 293.789062 284.199219 293.460938 264 287.113281 C 262.273438 212.015625 182.871094 217.9375 154.839844 143.933594 C 154.703125 143.722656 154.605469 143.5 154.539062 143.269531 C 157.441406 138.429688 159.320312 132.839844 159.984375 126.96875 C 163.367188 106.097656 162.789062 83.675781 154.042969 64.136719 C 148.265625 51.742188 139.332031 39.984375 127.546875 32.808594 C 112.96875 25.0625 95.257812 28.75 80.441406 33.996094 C 69.570312 38.796875 61.589844 49.144531 49.453125 51.292969 C 45.234375 52.296875 41.078125 52.035156 36.917969 51.769531 C 32.425781 51.484375 27.921875 51.203125 23.289062 52.507812 C 8.996094 56.746094 4.402344 74.28125 9.601562 87.082031 C 13.324219 96.9375 19.832031 105.691406 27.167969 113.171875 C 41.617188 127.394531 63.371094 133.261719 84.1875 134.785156 C 80.796875 138.941406 77.667969 143.335938 74.953125 147.957031 C 64.199219 166.109375 60.140625 187.53125 61.144531 208.460938 C 60.707031 231.710938 63.84375 264.335938 52.71875 285.015625 C 45.367188 294.648438 31.660156 293.699219 21.164062 297.46875 C 5.523438 300.992188 0.0195312 319.957031 13.210938 329.988281 C 22.164062 337.136719 34.003906 336.816406 44.871094 335.839844 C 67.113281 334.066406 87.070312 321.980469 102.90625 306.835938 C 111.480469 319.65625 123.886719 329.964844 137.3125 337.398438 C 137.640625 337.5625 137.992188 337.636719 138.34375 337.636719 C 139.429688 337.636719 140.515625 336.929688 140.933594 335.925781 C 141.882812 333.570312 139.78125 332.46875 138.027344 331.351562 C 135.796875 329.800781 133.332031 327.90625 130.921875 325.976562 C 122.207031 319.050781 113.707031 311.523438 107.9375 301.875 C 120.890625 288.101562 130.726562 270.488281 132.597656 251.464844 C 134.460938 236.175781 124.433594 210.835938 105.433594 220.820312 C 95.945312 226.382812 91.914062 237.578125 89.769531 247.8125 C 85.941406 265.449219 89.386719 284.457031 98.671875 299.886719 C 79.605469 319.066406 51.714844 333.117188 24.265625 326.914062 C 16.253906 324.867188 9.707031 315.332031 16.878906 308.582031 C 22.675781 304.121094 30.484375 303.785156 37.347656 301.957031 C 58.238281 298.484375 64.613281 285.421875 67.441406 265.964844 C 72.257812 236.878906 66.5 207.117188 71.707031 178.144531 C 73.984375 166.671875 78.339844 155.589844 84.941406 145.90625 C 86.339844 142.707031 92.136719 138.777344 91.226562 135.144531 C 95.144531 135.257812 98.996094 135.230469 102.714844 135.085938 C 106.148438 146.769531 114.570312 159.246094 127.972656 159.441406 C 137.589844 159.066406 145.554688 154.632812 151.164062 147.96875 C 152.472656 152.429688 155.074219 156.777344 156.777344 160.835938 C 183.507812 220.625 255.734375 220.085938 257.410156 284.859375 C 237.269531 277.613281 218.523438 266.355469 197.636719 261.308594 C 188.414062 260.304688 178.460938 260.945312 170.410156 265.953125 C 160.785156 271.449219 151.046875 279.347656 149.722656 291.082031 C 147.675781 299.699219 150.09375 308.527344 152.921875 316.6875 C 159.40625 334.960938 176.757812 349.160156 196.425781 349.78125 C 197.191406 349.824219 197.953125 349.839844 198.71875 349.839844 C 209.929688 349.839844 220.785156 345.773438 230.585938 340.558594 C 248.164062 331.628906 261.742188 314.640625 263.671875 294.6875 C 284.148438 300.5625 306.722656 300.402344 326.703125 292.730469 C 343.171875 285.671875 357.621094 274.4375 371.566406 263.351562 C 375.007812 260.777344 370.828125 255.472656 367.535156 258.128906 Z M 97.734375 249.433594 C 99.785156 240.777344 102.917969 228.777344 112.929688 226.699219 C 121.246094 226.835938 123.546875 237.480469 124.296875 244.148438 C 125.238281 262.832031 116.398438 281.085938 103.894531 294.566406 C 97.324219 280.648438 94.71875 264.609375 97.734375 249.429688 Z M 153.792969 111.234375 C 152.546875 128.46875 149.847656 147.957031 129.492188 151.332031 C 110.640625 150.753906 108.433594 125.789062 105.792969 111.457031 C 104.746094 107.535156 106.457031 99.554688 100.652344 99.554688 C 100.5625 99.554688 100.472656 99.554688 100.382812 99.554688 C 94.230469 100.75 98.472656 110.527344 98.347656 114.886719 C 99.160156 120.402344 100.183594 125.902344 101.617188 131.296875 C 78.644531 130.332031 52.101562 126.667969 34.078125 111.242188 C 24.042969 101.371094 13.546875 88.609375 13.820312 73.808594 C 14.1875 66.828125 18.878906 59.640625 26.050781 58.3125 C 29.8125 57.824219 33.625 58.050781 37.433594 58.273438 C 42.957031 58.597656 48.484375 58.921875 53.867188 57.082031 C 64.4375 54.4375 72.183594 46.382812 81.550781 41.375 C 93.363281 36.523438 107.386719 33.820312 119.792969 37.90625 C 129.34375 41.664062 135.675781 50.042969 141.824219 57.96875 C 152.214844 73.554688 155.15625 92.820312 153.792969 111.230469 Z M 202.210938 341.386719 C 185.789062 342.648438 169.859375 332.78125 162.976562 317.9375 C 158.859375 308.882812 156.015625 298.511719 159.234375 288.753906 C 161.546875 282.175781 167.304688 277.867188 172.863281 274.085938 C 178.195312 270.226562 184.730469 268.671875 191.242188 268.671875 C 193.355469 268.671875 195.460938 268.835938 197.527344 269.136719 C 218.246094 274.597656 237.050781 285.621094 257.265625 292.632812 C 254.925781 320.355469 228.257812 338.71875 202.210938 341.386719 Z M 202.210938 341.386719 " fill-opacity="1" fill-rule="nonzero"/></g><g clip-path="url(#438a43b304)"><g clip-path="url(#deda59dd7e)"><g clip-path="url(#81030b9217)"><path fill="#d7837f" d="M 86.746094 313.445312 C 87.636719 313.875 88.683594 313.808594 89.523438 313.273438 C 91.175781 312.214844 130.128906 287.164062 137.011719 272.851562 C 143.675781 258.996094 137.898438 242.34375 124.132812 235.71875 C 110.367188 229.097656 93.746094 234.980469 87.085938 248.832031 C 80.199219 263.148438 84.941406 309.214844 85.148438 311.167969 C 85.25 312.15625 85.855469 313.015625 86.746094 313.445312 Z M 121.640625 240.902344 C 132.566406 246.15625 137.152344 259.378906 131.863281 270.375 C 127.265625 279.929688 103.175781 297.339844 90.390625 305.863281 C 89.070312 290.554688 87.632812 260.871094 92.234375 251.308594 C 97.523438 240.3125 110.714844 235.644531 121.640625 240.902344 Z M 121.640625 240.902344 " fill-opacity="1" fill-rule="nonzero"/></g></g></g><g clip-path="url(#560f7c5139)"><g clip-path="url(#6192da5e15)"><g clip-path="url(#eaf1f73975)"><path fill="#d7837f" d="M 125.835938 265.367188 C 129.300781 258.171875 126.296875 249.523438 119.148438 246.082031 C 111.996094 242.644531 103.367188 245.699219 99.90625 252.894531 C 96.445312 260.085938 99.445312 268.738281 106.597656 272.175781 C 113.746094 275.617188 122.378906 272.5625 125.835938 265.367188 Z M 105.054688 255.371094 C 107.140625 251.035156 112.347656 249.191406 116.65625 251.265625 C 120.964844 253.339844 122.773438 258.554688 120.6875 262.890625 C 118.601562 267.226562 113.398438 269.066406 109.089844 266.996094 C 104.78125 264.921875 102.96875 259.707031 105.054688 255.371094 Z M 105.054688 255.371094 " fill-opacity="1" fill-rule="nonzero"/></g></g></g><g clip-path="url(#ebf319f998)"><g clip-path="url(#dee187e247)"><g clip-path="url(#11175821d8)"><path fill="#d7837f" d="M 86.742188 313.445312 C 87.632812 313.871094 88.683594 313.808594 89.519531 313.273438 C 91.175781 312.214844 130.125 287.164062 137.011719 272.851562 C 143.675781 258.996094 137.898438 242.339844 124.132812 235.71875 C 110.363281 229.097656 93.746094 234.980469 87.082031 248.832031 C 80.195312 263.148438 84.9375 309.214844 85.144531 311.167969 C 85.25 312.15625 85.851562 313.015625 86.742188 313.445312 Z M 121.636719 240.902344 C 132.566406 246.15625 137.152344 259.375 131.863281 270.371094 C 127.265625 279.929688 103.175781 297.335938 90.390625 305.863281 C 89.070312 290.550781 87.632812 260.871094 92.230469 251.308594 C 97.519531 240.3125 110.710938 235.644531 121.636719 240.902344 Z M 121.636719 240.902344 " fill-opacity="1" fill-rule="nonzero"/></g></g></g><g clip-path="url(#9113eba9ae)"><g clip-path="url(#e92c052e8d)"><g clip-path="url(#937bbd58d9)"><path fill="#d7837f" d="M 125.835938 265.367188 C 129.296875 258.171875 126.296875 249.523438 119.144531 246.082031 C 111.996094 242.644531 103.363281 245.699219 99.902344 252.894531 C 96.441406 260.085938 99.445312 268.738281 106.59375 272.175781 C 113.746094 275.617188 122.375 272.5625 125.835938 265.367188 Z M 105.050781 255.371094 C 107.140625 251.035156 112.34375 249.191406 116.652344 251.265625 C 120.964844 253.335938 122.773438 258.554688 120.6875 262.890625 C 118.601562 267.226562 113.398438 269.066406 109.085938 266.996094 C 104.777344 264.921875 102.964844 259.707031 105.050781 255.371094 Z M 105.050781 255.371094 " fill-opacity="1" fill-rule="nonzero"/></g></g></g><g clip-path="url(#1ac59d0e01)"><g clip-path="url(#49899a3ef7)"><g clip-path="url(#ab13589cc6)"><path fill="#d7837f" d="M 86.742188 313.445312 C 87.632812 313.871094 88.683594 313.808594 89.519531 313.269531 C 91.171875 312.214844 130.125 287.164062 137.011719 272.847656 C 143.675781 258.996094 137.898438 242.339844 124.128906 235.71875 C 110.363281 229.097656 93.746094 234.980469 87.082031 248.832031 C 80.195312 263.148438 84.9375 309.214844 85.144531 311.167969 C 85.25 312.15625 85.851562 313.015625 86.742188 313.445312 Z M 121.636719 240.898438 C 132.566406 246.15625 137.152344 259.375 131.863281 270.371094 C 127.265625 279.929688 103.175781 297.335938 90.390625 305.859375 C 89.070312 290.550781 87.632812 260.871094 92.230469 251.308594 C 97.519531 240.3125 110.710938 235.644531 121.636719 240.898438 Z M 121.636719 240.898438 " fill-opacity="1" fill-rule="nonzero"/></g></g></g><g clip-path="url(#8595f4fd3b)"><g clip-path="url(#496ee1565a)"><g clip-path="url(#390c6e9e30)"><path fill="#d7837f" d="M 125.835938 265.367188 C 129.296875 258.171875 126.296875 249.523438 119.144531 246.082031 C 111.996094 242.640625 103.363281 245.695312 99.902344 252.894531 C 96.441406 260.085938 99.445312 268.734375 106.59375 272.175781 C 113.746094 275.613281 122.375 272.558594 125.835938 265.367188 Z M 105.050781 255.371094 C 107.136719 251.03125 112.34375 249.191406 116.652344 251.261719 C 120.960938 253.335938 122.773438 258.554688 120.6875 262.890625 C 118.601562 267.226562 113.394531 269.066406 109.085938 266.992188 C 104.777344 264.921875 102.964844 259.707031 105.050781 255.371094 Z M 105.050781 255.371094 " fill-opacity="1" fill-rule="nonzero"/></g></g></g><g clip-path="url(#9f8b2db23e)"><g clip-path="url(#2be08f366d)"><g clip-path="url(#166863c74c)"><path fill="#d7837f" d="M 86.742188 313.445312 C 87.632812 313.871094 88.683594 313.808594 89.519531 313.273438 C 91.175781 312.214844 130.125 287.164062 137.011719 272.851562 C 143.675781 258.996094 137.898438 242.339844 124.132812 235.71875 C 110.367188 229.097656 93.746094 234.980469 87.082031 248.832031 C 80.195312 263.148438 84.9375 309.214844 85.144531 311.167969 C 85.25 312.15625 85.855469 313.015625 86.742188 313.445312 Z M 121.640625 240.902344 C 132.566406 246.15625 137.152344 259.375 131.863281 270.371094 C 127.265625 279.929688 103.175781 297.335938 90.390625 305.863281 C 89.070312 290.554688 87.632812 260.871094 92.230469 251.308594 C 97.519531 240.3125 110.710938 235.644531 121.640625 240.902344 Z M 121.640625 240.902344 " fill-opacity="1" fill-rule="nonzero"/></g></g></g><g clip-path="url(#501bdd4846)"><g clip-path="url(#530cb2c686)"><g clip-path="url(#cbcb682b95)"><path fill="#d7837f" d="M 125.835938 265.367188 C 129.296875 258.171875 126.296875 249.523438 119.144531 246.082031 C 111.996094 242.644531 103.363281 245.699219 99.902344 252.894531 C 96.445312 260.085938 99.445312 268.738281 106.59375 272.175781 C 113.746094 275.617188 122.375 272.5625 125.835938 265.367188 Z M 105.054688 255.371094 C 107.140625 251.035156 112.34375 249.191406 116.652344 251.265625 C 120.964844 253.335938 122.773438 258.554688 120.6875 262.890625 C 118.601562 267.226562 113.398438 269.066406 109.085938 266.996094 C 104.777344 264.921875 102.96875 259.707031 105.054688 255.371094 Z M 105.054688 255.371094 " fill-opacity="1" fill-rule="nonzero"/></g></g></g><g clip-path="url(#224bea2e84)"><g clip-path="url(#7c9ae73a65)"><g clip-path="url(#e1ddbcf6db)"><path fill="#d7837f" d="M 113.789062 258.804688 C 112.933594 258.128906 111.925781 257.640625 110.863281 257.398438 C 105.539062 256.207031 101.960938 258.25 100.054688 261.851562 C 98.035156 265.816406 100.414062 267.601562 106.710938 267.214844 C 107.492188 267.175781 108.257812 267.550781 108.714844 268.1875 C 112.195312 273.035156 114.851562 274.101562 116.8125 270.53125 C 118.742188 266.660156 118.226562 262.371094 113.789062 258.804688 Z M 113.789062 258.804688 " fill-opacity="1" fill-rule="nonzero"/></g></g></g><g clip-path="url(#ef07652a8b)"><g clip-path="url(#12f609cc94)"><g clip-path="url(#ebfb636987)"><path fill="#d7837f" d="M 125.496094 261.738281 C 122.890625 260.230469 120.296875 263.078125 118.988281 265.75 C 118.933594 265.859375 118.894531 265.980469 118.871094 266.101562 C 118.289062 269.292969 124.65625 268.695312 126.019531 266.425781 C 126.890625 264.980469 127.113281 262.765625 125.496094 261.738281 Z M 125.496094 261.738281 " fill-opacity="1" fill-rule="nonzero"/></g></g></g><g clip-path="url(#0a10e0eec8)"><g clip-path="url(#a88119ce25)"><g clip-path="url(#56986bd079)"><path fill="#d7837f" d="M 102.179688 257.664062 C 103.453125 254.976562 104.058594 251.171875 101.25 250.078125 C 99.4375 249.457031 97.84375 251.011719 97.257812 252.589844 C 96.339844 255.074219 99.847656 260.425781 101.976562 257.972656 C 102.058594 257.882812 102.128906 257.777344 102.179688 257.664062 Z M 102.179688 257.664062 " fill-opacity="1" fill-rule="nonzero"/></g></g></g><g clip-path="url(#097780f206)"><g clip-path="url(#80b50d3ee8)"><g clip-path="url(#fd9cf719ad)"><path fill="#d7837f" d="M 105.648438 252.511719 C 106.503906 254.683594 107.925781 255.710938 110.035156 255.703125 C 112.261719 255.773438 116.1875 248.273438 112.976562 245.640625 C 110.339844 243.246094 104.128906 248.730469 105.648438 252.511719 Z M 105.648438 252.511719 " fill-opacity="1" fill-rule="nonzero"/></g></g></g><g clip-path="url(#feb3a4fdfd)"><g clip-path="url(#ada67cd443)"><g clip-path="url(#61bac05dd3)"><path fill="#d7837f" d="M 121.640625 249.804688 C 117.585938 248.9375 114.175781 256.691406 115.617188 258.386719 C 116.925781 260.039062 118.613281 260.511719 120.84375 259.824219 C 124.75 258.652344 125.160156 250.375 121.640625 249.804688 Z M 121.667969 256.714844 C 120.980469 257.394531 118.414062 257.089844 118.414062 257.089844 C 118.414062 257.089844 118.117188 254.535156 118.800781 253.855469 C 119.203125 253.453125 119.832031 253.417969 120.253906 253.839844 C 120.796875 254.382812 120.425781 255.09375 120.425781 255.09375 C 120.425781 255.09375 121.140625 254.726562 121.683594 255.269531 C 122.109375 255.695312 122.066406 256.316406 121.667969 256.714844 Z M 121.667969 256.714844 " fill-opacity="1" fill-rule="nonzero"/></g></g></g><g clip-path="url(#3dcd2ecaae)"><g clip-path="url(#9709d7a9a0)"><g clip-path="url(#da5f6e8c13)"><path fill="#d7837f" d="M 86.746094 313.445312 C 87.632812 313.875 88.683594 313.808594 89.519531 313.273438 C 91.175781 312.214844 130.125 287.164062 137.011719 272.851562 C 143.675781 258.996094 137.898438 242.339844 124.132812 235.71875 C 110.367188 229.097656 93.746094 234.980469 87.082031 248.832031 C 80.195312 263.148438 84.941406 309.214844 85.144531 311.167969 C 85.25 312.15625 85.855469 313.015625 86.746094 313.445312 Z M 121.640625 240.902344 C 132.566406 246.15625 137.152344 259.378906 131.863281 270.375 C 127.265625 279.929688 103.175781 297.339844 90.390625 305.863281 C 89.070312 290.554688 87.632812 260.871094 92.234375 251.308594 C 97.523438 240.3125 110.710938 235.644531 121.640625 240.902344 Z M 121.640625 240.902344 " fill-opacity="1" fill-rule="nonzero"/></g></g></g></svg>