<svg xmlns="http://www.w3.org/2000/svg" xmlns:xlink="http://www.w3.org/1999/xlink" width="500" zoomAndPan="magnify" viewBox="0 0 375 374.999991" height="500" preserveAspectRatio="xMidYMid meet" version="1.0"><defs><clipPath id="72f2c3410c"><path d="M 64 0 L 310.734375 0 L 310.734375 372 L 64 372 Z M 64 0 " clip-rule="nonzero"/></clipPath></defs><g clip-path="url(#72f2c3410c)"><path fill="#faeeed" d="M 310.15625 122.9375 C 310.15625 55.28125 255.351562 0 187.359375 0 C 119.367188 0 64.5625 55.28125 64.5625 122.9375 C 64.5625 143.5625 69.917969 163.367188 78.984375 180.691406 L 153.15625 320.542969 L 174.996094 361.796875 C 182.003906 375 193.539062 375 200.546875 361.796875 L 214.554688 334.984375 L 296.144531 180.691406 C 305.210938 163.367188 310.15625 143.976562 310.15625 122.9375 Z M 310.15625 122.9375 " fill-opacity="1" fill-rule="nonzero"/></g><path fill="#d7837f" d="M 195.078125 110.808594 C 190.140625 109.6875 184.929688 109.6875 179.992188 110.808594 C 155.273438 116.601562 144.40625 132.496094 143.664062 151.570312 C 143.199219 172.417969 156.773438 175.117188 182.382812 160.707031 C 185.582031 158.949219 189.539062 158.96875 192.738281 160.738281 C 217.09375 174.140625 230.371094 173.246094 231.402344 154.1875 C 231.679688 133.925781 220.878906 116.863281 195.078125 110.808594 Z M 195.078125 110.808594 " fill-opacity="1" fill-rule="nonzero"/><path fill="#d7837f" d="M 250.066406 99.421875 C 236.101562 98.335938 230.972656 115.640625 230.871094 129.574219 C 230.871094 130.15625 230.941406 130.742188 231.09375 131.292969 C 235.085938 145.964844 260.558594 130.5 261.710938 118.152344 C 262.449219 110.273438 258.90625 100.46875 250.066406 99.421875 Z M 250.066406 99.421875 " fill-opacity="1" fill-rule="nonzero"/><path fill="#d7837f" d="M 144.144531 129.574219 C 144.058594 115.640625 138.917969 98.335938 124.949219 99.421875 C 116.109375 100.488281 112.550781 110.289062 113.289062 118.152344 C 114.441406 130.5 139.933594 145.964844 143.90625 131.292969 C 144.078125 130.742188 144.144531 130.15625 144.144531 129.574219 Z M 144.144531 129.574219 " fill-opacity="1" fill-rule="nonzero"/><path fill="#d7837f" d="M 148.292969 100.777344 C 156.253906 108.210938 164.269531 109.65625 173.09375 105.335938 C 182.570312 101.121094 183.914062 61.457031 165.148438 56.867188 C 149.273438 52.117188 134.308594 87.894531 148.292969 100.777344 Z M 148.292969 100.777344 " fill-opacity="1" fill-rule="nonzero"/><path fill="#d7837f" d="M 209.851562 56.867188 C 191.101562 61.441406 192.445312 101.105469 201.90625 105.335938 C 210.730469 109.65625 218.746094 108.210938 226.707031 100.777344 C 240.710938 87.894531 225.746094 52.117188 209.851562 56.867188 Z M 223.886719 85.988281 C 222.390625 90.253906 211.023438 94.175781 211.023438 94.175781 C 211.023438 94.175781 204.621094 83.992188 206.121094 79.726562 C 206.996094 77.214844 209.542969 75.785156 212.175781 76.714844 C 215.546875 77.902344 215.425781 81.652344 215.425781 81.652344 C 215.425781 81.652344 217.679688 78.660156 221.050781 79.847656 C 223.679688 80.773438 224.765625 83.492188 223.886719 85.988281 Z M 223.886719 85.988281 " fill-opacity="1" fill-rule="nonzero"/></svg>